<svg id="visual" viewBox="0 0 900 600" width="900" height="600" xmlns="http://www.w3.org/2000/svg" xmlns:xlink="http://www.w3.org/1999/xlink" version="1.1"><path d="M0 238L7.5 236.5C15 235 30 232 45 243.5C60 255 75 281 90 270.5C105 260 120 213 135 192.2C150 171.3 165 176.7 180 197.5C195 218.3 210 254.7 225 276.5C240 298.3 255 305.7 270 295C285 284.3 300 255.7 315 234.3C330 213 345 199 360 227.8C375 256.7 390 328.3 405 328.7C420 329 435 258 450 245.5C465 233 480 279 495 287.3C510 295.7 525 266.3 540 250.7C555 235 570 233 585 240.5C600 248 615 265 630 292.5C645 320 660 358 675 347.8C690 337.7 705 279.3 720 275.2C735 271 750 321 765 347.2C780 373.3 795 375.7 810 337C825 298.3 840 218.7 855 186.8C870 155 885 171 892.5 179L900 187" fill="none" stroke-linecap="round" stroke-linejoin="miter" stroke="#2b70c9" stroke-width="20"></path></svg>